<svg width="16" height="16" viewBox="0 0 16 16" fill="none" xmlns="http://www.w3.org/2000/svg">
<path d="M12.1601 4.09179C11.8579 3.80781 11.3676 3.80777 11.0653 4.09174C10.763 4.37577 10.7629 4.83623 11.0653 5.12025L13.3565 7.27278H3.87098C3.44343 7.27278 3.0968 7.59841 3.0968 8.00006C3.0968 8.40171 3.44343 8.72733 3.87098 8.72733H13.3564L11.0653 10.8797C10.7629 11.1637 10.7629 11.6242 11.0653 11.9082C11.2165 12.0502 11.4146 12.1212 11.6127 12.1212C11.8109 12.1212 12.009 12.0502 12.1601 11.9082L15.7728 8.51434C16.0752 8.23036 16.0752 7.76985 15.7728 7.48583L12.1601 4.09179Z" fill="white"/>
<path d="M7.48371 16C7.91126 16 8.25789 15.6744 8.25789 15.2727C8.25789 14.8711 7.91126 14.5455 7.48371 14.5455H1.54835V1.45455H7.48371C7.91126 1.45455 8.25789 1.12892 8.25789 0.727273C8.25789 0.325624 7.91126 0 7.48371 0H0.774177C0.346625 0 0 0.325624 0 0.727273V15.2727C0 15.6744 0.346625 16 0.774177 16H7.48371Z" fill="white"/>
</svg>
